# xmcd
#
# Track frame offsets:
#	150
#	27877
#	64252
#	100827
#	131957
#	161065
#	187010
#	197850
#	228940
#	245752
#
# Disc length: 3557
#
# Revision: 1
# Processed by: cddbd v1.5.1PL0 Copyright (c) Steve Scherf et al.
# Submitted via: CDex 1.50
# Normalized: r0:TRMNUM
#
DISCID=910de30a
DTITLE=Patrick Bernhardt - Solarisd Universalis
DYEAR=1990
DGENRE=New Age
TTITLE0=Harmonie De La Mère-Terre
TTITLE1=Le Jardin Enchante
TTITLE2=Ocean De Paix
TTITLE3=La Danse Du Soleil
TTITLE4=Le Souffle Des Etoiles
TTITLE5=Le Souffle Des Etoiles(2)
TTITLE6=Rituel Du Feu Purificateur
TTITLE7=L'Oraison Du Troisième Milenaire
TTITLE8='Appel Des Cathedrales Cosmiques
TTITLE9=La Nouvelle Lumière Qui Vient
EXTD=YEAR: 1990
EXTT0=
EXTT1=
EXTT2=
EXTT3=
EXTT4=
EXTT5=
EXTT6=
EXTT7=
EXTT8=
EXTT9=
PLAYORDER=
